<?xml version="1.0" encoding="UTF-8"?>
<svg id="Layer_2" xmlns="http://www.w3.org/2000/svg" viewBox="0 0 379.04 484.04">
  <defs>
    <style>
      .cls-1 {
        fill: #d1af2d;
      }

      .cls-2 {
        fill: #010101;
      }

      .cls-3 {
        fill: #bcbec0;
      }

      .cls-4 {
        fill: #ee9c68;
      }

      .cls-5 {
        stroke-miterlimit: 3;
      }

      .cls-5, .cls-6 {
        fill: none;
        stroke: #010101;
        stroke-width: 8.53px;
      }

      .cls-7 {
        fill: #47a1ce;
      }

      .cls-8 {
        fill: #84cfe6;
      }

      .cls-9 {
        fill: #de6f26;
      }

      .cls-10 {
        fill: #eed667;
      }

      .cls-11 {
        fill: #939598;
      }

      .cls-6 {
        stroke-linejoin: round;
      }
    </style>
  </defs>
  <g id="Layer_1-2" data-name="Layer_1">
    <g>
      <g id="Twin">
        <g>
          <path id="path4052-1-2-8" class="cls-11" d="M4.27,195.37l67.41,35.66v-95.55L4.27,99.82v95.55Z"/>
          <path id="path4048-1-9" class="cls-11" d="M4.27,290.92l67.41,35.66v-95.55L4.27,195.37v95.55Z"/>
          <path id="path3883-9-9-8" class="cls-11" d="M4.27,386.47l67.41,35.66v-95.55L4.27,290.92v95.55Z"/>
        </g>
        <g>
          <path id="path4054-4-9-2" class="cls-3" d="M71.68,135.47v95.55l191.1-95.55V39.92l-191.1,95.55Z"/>
          <path id="path4056-2-1-5" class="cls-3" d="M4.27,99.82L195.37,4.27l67.41,35.66-191.1,95.55L4.27,99.82Z"/>
          <path id="path4050-7-2" class="cls-3" d="M71.68,231.02v95.55l191.1-95.55v-95.55l-191.1,95.55Z"/>
          <path id="path3885-8-9-1" class="cls-3" d="M71.68,326.57v95.55l191.1-95.55v-95.55l-191.1,95.55Z"/>
        </g>
        <path id="path3893-6-0-8" class="cls-6" d="M4.27,99.82L195.37,4.27l67.41,35.66-191.1,95.55L4.27,99.82Z"/>
        <path id="path3895-2-6-1" class="cls-5" d="M4.27,99.82v95.55l67.41,35.66,191.1-95.55V39.92"/>
        <path id="path3897-3-2-1" class="cls-5" d="M71.68,135.47v286.65"/>
        <path id="path3899-8-1-7" class="cls-5" d="M4.27,195.37v95.55l67.41,35.66,191.1-95.55v-95.55"/>
        <path id="path3901-5-6-1" class="cls-6" d="M4.27,290.92v95.55l67.41,35.66,191.1-95.55v-95.55"/>
        <path id="path3906-6-2-4-1-2" class="cls-2" d="M103.37,249.01c6.86-2.92,14.06-.28,16.08,5.9s-1.91,13.56-8.77,16.48c-6.86,2.92-14.06.28-16.08-5.9-2.02-6.18,1.91-13.56,8.77-16.48Z"/>
        <path id="path3910-3-0-1-9-1" class="cls-2" d="M103.37,344.56c6.86-2.92,14.06-.28,16.08,5.9s-1.91,13.56-8.77,16.48c-6.86,2.92-14.06.28-16.08-5.9s1.91-13.56,8.77-16.48Z"/>
        <path id="path4108-7-3-6" class="cls-2" d="M103.37,153.46c6.86-2.92,14.06-.28,16.08,5.9s-1.91,13.56-8.77,16.48c-6.86,2.92-14.06.28-16.08-5.9-2.02-6.18,1.91-13.56,8.77-16.48Z"/>
      </g>
      <g id="Physical">
        <path id="path4052-1-2-8-2" data-name="path4052-1-2-8" class="cls-7" d="M116.27,253.02l67.41,35.66v-95.55l-67.41-35.66v95.55Z"/>
        <path id="path4054-4-9-2-2" data-name="path4054-4-9-2" class="cls-8" d="M183.68,193.12v95.55l191.1-95.55v-95.55l-191.1,95.55Z"/>
        <path id="path4056-2-1-5-2" data-name="path4056-2-1-5" class="cls-8" d="M116.27,157.47l191.1-95.55,67.41,35.66-191.1,95.55-67.41-35.66Z"/>
        <path id="path4048-1-9-2" data-name="path4048-1-9" class="cls-1" d="M116.27,348.57l67.41,35.66v-95.55l-67.41-35.66v95.55Z"/>
        <path id="path4050-7-2-2" data-name="path4050-7-2" class="cls-10" d="M183.68,288.67v95.55l191.1-95.55v-95.55l-191.1,95.55Z"/>
        <path id="path3883-9-9-8-2" data-name="path3883-9-9-8" class="cls-9" d="M116.27,444.12l67.41,35.66v-95.55l-67.41-35.66v95.55Z"/>
        <path id="path3885-8-9-1-2" data-name="path3885-8-9-1" class="cls-4" d="M183.68,384.22v95.55l191.1-95.55v-95.55l-191.1,95.55Z"/>
        <path id="path3893-6-0-8-2" data-name="path3893-6-0-8" class="cls-6" d="M116.27,157.47l191.1-95.55,67.41,35.66-191.1,95.55-67.41-35.66Z"/>
        <path id="path3895-2-6-1-2" data-name="path3895-2-6-1" class="cls-5" d="M116.27,157.47v95.55l67.41,35.66,191.1-95.55v-95.55"/>
        <path id="path3897-3-2-1-2" data-name="path3897-3-2-1" class="cls-5" d="M183.68,193.12v286.65"/>
        <path id="path3899-8-1-7-2" data-name="path3899-8-1-7" class="cls-5" d="M116.27,253.02v95.55l67.41,35.66,191.1-95.55v-95.55"/>
        <path id="path3901-5-6-1-2" data-name="path3901-5-6-1" class="cls-6" d="M116.27,348.57v95.55l67.41,35.66,191.1-95.55v-95.55"/>
        <path id="path3906-6-2-4-1-2-2" data-name="path3906-6-2-4-1-2" class="cls-2" d="M215.37,306.66c6.86-2.92,14.06-.28,16.08,5.9s-1.91,13.56-8.77,16.48c-6.86,2.92-14.06.28-16.08-5.9s1.91-13.56,8.77-16.48Z"/>
        <path id="path3910-3-0-1-9-1-2" data-name="path3910-3-0-1-9-1" class="cls-2" d="M215.37,402.21c6.86-2.92,14.06-.28,16.08,5.9s-1.91,13.56-8.77,16.48c-6.86,2.92-14.06.28-16.08-5.9s1.91-13.56,8.77-16.48Z"/>
        <path id="path4108-7-3-6-2" data-name="path4108-7-3-6" class="cls-2" d="M215.37,211.11c6.86-2.92,14.06-.28,16.08,5.9s-1.91,13.56-8.77,16.48-14.06.28-16.08-5.9,1.91-13.56,8.77-16.48Z"/>
      </g>
    </g>
  </g>
</svg>